<?xml version="1.0" encoding="utf-8"?>
<!-- Generator: Adobe Illustrator 22.1.0, SVG Export Plug-In . SVG Version: 6.00 Build 0)  -->
<svg version="1.1" id="Шар_1" xmlns="http://www.w3.org/2000/svg" xmlns:xlink="http://www.w3.org/1999/xlink" x="0px" y="0px"
	 viewBox="0 0 200 68" style="enable-background:new 0 0 200 68;" xml:space="preserve">
<style type="text/css">
	.st0{fill:#999999;}
	.st1{fill:#0071BC;}
	.st2{fill:#FFFFFF;}
	.st3{clip-path:url(#SVGID_2_);}
	.st4{fill:#E6E6E6;}
	.st5{clip-path:url(#SVGID_4_);}
	.st6{fill:#2083C4;}
	.st7{fill:none;stroke:#0071BC;stroke-width:2;stroke-miterlimit:10;}
	.st8{fill:none;stroke:#ED1E79;stroke-width:2;stroke-miterlimit:10;}
</style>
<title>test-third</title>
<g id="Шар_2_1_">
	<g id="Layer_1">
		<rect x="-27.1" y="29" class="st0" width="358" height="16"/>
		<rect x="-23.1" y="26" class="st1" width="358" height="16"/>
		<rect x="297.9" y="27" class="st2" width="33" height="14"/>
		<rect x="141.9" y="27" class="st2" width="150" height="14"/>
		<rect x="74.9" y="27" class="st2" width="35" height="14"/>
		<rect x="-22.1" y="27" class="st2" width="44" height="14"/>
		<g>
			<defs>
				<rect id="SVGID_1_" x="297.9" y="27" width="33" height="14"/>
			</defs>
			<clipPath id="SVGID_2_">
				<use xlink:href="#SVGID_1_"  style="overflow:visible;"/>
			</clipPath>
			<g class="st3">
				<path class="st4" d="M307.5,34.2c0,0.4-0.1,0.8-0.4,1c-0.4,0.2-0.8,0.4-1.2,0.3c-0.4,0-0.9,0-1.3-0.2v-0.5
					c0.2,0.1,0.4,0.1,0.6,0.2c0.2,0,0.5,0,0.7,0c0.3,0,0.6-0.1,0.8-0.2c0.2-0.1,0.3-0.3,0.3-0.6c0-0.1,0-0.3-0.1-0.4
					c-0.1-0.1-0.2-0.2-0.3-0.3c-0.2-0.1-0.5-0.2-0.7-0.3c-0.3-0.1-0.7-0.3-0.9-0.5c-0.2-0.2-0.3-0.5-0.3-0.8c0-0.3,0.1-0.7,0.4-0.9
					c0.3-0.2,0.7-0.3,1.1-0.3c0.4,0,0.9,0.1,1.3,0.3l-0.2,0.5c-0.4-0.2-0.7-0.2-1.1-0.2c-0.2,0-0.5,0.1-0.7,0.2
					c-0.2,0.1-0.3,0.3-0.2,0.5c0,0.1,0,0.3,0.1,0.4c0.1,0.1,0.2,0.2,0.3,0.3c0.2,0.1,0.4,0.2,0.6,0.3c0.4,0.1,0.7,0.3,1,0.5
					C307.4,33.6,307.5,33.9,307.5,34.2z"/>
				<path class="st4" d="M309.5,35h0.3l0.2,0v0.4c-0.1,0-0.2,0.1-0.3,0.1h-0.3c-0.7,0-1-0.3-1-1.1v-2h-0.5v-0.3l0.5-0.2l0.2-0.7h0.3
					v0.8h1v0.4h-1v2c0,0.2,0,0.3,0.1,0.5C309.2,34.9,309.3,35,309.5,35z"/>
				<path class="st4" d="M312.2,31.9c0.1,0,0.3,0,0.4,0l-0.1,0.5c-0.1,0-0.3,0-0.4,0c-0.3,0-0.5,0.1-0.7,0.3
					c-0.2,0.2-0.3,0.5-0.3,0.9v1.9h-0.5v-3.5h0.4l0.1,0.6l0,0c0.1-0.2,0.3-0.4,0.5-0.5C311.8,31.9,312,31.9,312.2,31.9z"/>
				<path class="st4" d="M314.8,35.5c-0.5,0-0.9-0.1-1.2-0.5c-0.3-0.4-0.5-0.8-0.5-1.3c0-0.5,0.1-1,0.4-1.3c0.3-0.3,0.7-0.5,1.1-0.5
					c0.4,0,0.7,0.2,1,0.4c0.3,0.3,0.4,0.7,0.4,1.1v0.3h-2.4c0,0.3,0.1,0.7,0.3,0.9c0.2,0.2,0.5,0.3,0.8,0.3c0.4,0,0.8-0.1,1.1-0.2
					v0.5c-0.2,0.1-0.3,0.1-0.5,0.2C315.1,35.5,315,35.5,314.8,35.5z M314.6,32.3c-0.3,0-0.5,0.1-0.7,0.3c-0.2,0.2-0.3,0.5-0.3,0.8
					h1.8c0-0.3-0.1-0.5-0.2-0.8C315.1,32.4,314.9,32.3,314.6,32.3z"/>
				<path class="st4" d="M318.6,35.5c-0.2,0-0.4,0-0.6-0.1c-0.2-0.1-0.3-0.2-0.5-0.4l0,0c0,0.2,0,0.4,0,0.6V37h-0.6v-5h0.4l0.1,0.5
					l0,0c0.1-0.2,0.3-0.4,0.5-0.5c0.2-0.1,0.4-0.1,0.6-0.1c0.4,0,0.8,0.2,1.1,0.5c0.5,0.8,0.5,1.8,0,2.7
					C319.3,35.3,319,35.5,318.6,35.5z M318.5,32.3c-0.3,0-0.6,0.1-0.8,0.3c-0.2,0.3-0.3,0.6-0.2,0.9v0.1c0,0.4,0.1,0.7,0.2,1
					c0.2,0.2,0.5,0.3,0.8,0.3c0.3,0,0.5-0.1,0.7-0.4c0.2-0.3,0.3-0.6,0.3-1c0-0.4-0.1-0.7-0.3-1C319,32.4,318.8,32.3,318.5,32.3z"/>
				<path class="st4" d="M325.6,35.4l-0.6-1.5h-1.9l-0.6,1.5H322l1.9-4.6h0.5l1.8,4.6H325.6z M324.8,33.4l-0.5-1.4
					c-0.1-0.2-0.1-0.4-0.2-0.7c0,0.2-0.1,0.4-0.2,0.7l-0.5,1.4L324.8,33.4z"/>
				<path class="st4" d="M307.5,39.9c0,0.4-0.1,0.8-0.4,1c-0.4,0.2-0.8,0.4-1.2,0.3c-0.4,0-0.9,0-1.3-0.2v-0.5
					c0.2,0.1,0.4,0.1,0.6,0.2c0.2,0,0.4,0.1,0.7,0.1c0.3,0,0.6-0.1,0.8-0.2c0.2-0.1,0.3-0.4,0.2-0.6c0-0.1,0-0.3-0.1-0.4
					c-0.1-0.1-0.2-0.2-0.3-0.3c-0.2-0.1-0.5-0.2-0.7-0.3c-0.3-0.1-0.7-0.3-0.9-0.5c-0.2-0.2-0.3-0.5-0.3-0.8c0-0.3,0.1-0.7,0.4-0.8
					c0.3-0.2,0.7-0.3,1.1-0.3c0.4,0,0.9,0.1,1.3,0.3l-0.2,0.5c-0.4-0.2-0.7-0.2-1.1-0.2c-0.2,0-0.5,0.1-0.7,0.2
					c-0.2,0.1-0.3,0.3-0.2,0.5c0,0.1,0,0.3,0.1,0.4c0.1,0.1,0.2,0.2,0.3,0.3c0.2,0.1,0.4,0.2,0.6,0.3c0.4,0.1,0.7,0.3,1,0.5
					C307.4,39.4,307.5,39.6,307.5,39.9z"/>
				<path class="st4" d="M309.5,40.8h0.3l0.2,0v0.4c-0.1,0-0.2,0.1-0.3,0.1h-0.3c-0.7,0-1-0.3-1-1.1v-2.1h-0.5v-0.3l0.5-0.2l0.2-0.7
					h0.3v0.8h1v0.4h-1v2c0,0.2,0,0.3,0.1,0.5C309.2,40.7,309.3,40.8,309.5,40.8z"/>
				<path class="st4" d="M312.2,37.6c0.1,0,0.3,0,0.4,0l-0.1,0.5c-0.1,0-0.3,0-0.4,0c-0.3,0-0.5,0.1-0.7,0.3
					c-0.2,0.2-0.3,0.5-0.3,0.9v1.9h-0.5v-3.5h0.4l0.1,0.6l0,0c0.1-0.2,0.3-0.4,0.5-0.5C311.8,37.7,312,37.6,312.2,37.6z"/>
				<path class="st4" d="M314.8,41.2c-0.5,0-0.9-0.1-1.2-0.5c-0.3-0.4-0.5-0.8-0.5-1.3c0-0.5,0.1-1,0.4-1.3c0.3-0.3,0.7-0.5,1.1-0.5
					c0.4,0,0.7,0.2,1,0.4c0.3,0.3,0.4,0.7,0.4,1.1v0.3h-2.4c0,0.3,0.1,0.7,0.3,0.9c0.2,0.2,0.5,0.3,0.8,0.3c0.4,0,0.8-0.1,1.1-0.2
					V41c-0.2,0.1-0.3,0.1-0.5,0.2C315.1,41.2,315,41.2,314.8,41.2z M314.6,38.1c-0.3,0-0.5,0.1-0.7,0.3c-0.2,0.2-0.3,0.5-0.3,0.8
					h1.8c0-0.3-0.1-0.5-0.2-0.8C315.1,38.1,314.9,38,314.6,38.1z"/>
				<path class="st4" d="M318.6,41.2c-0.2,0-0.4,0-0.6-0.1c-0.2-0.1-0.3-0.2-0.5-0.4l0,0c0,0.2,0,0.4,0,0.6v1.4h-0.6v-5h0.4l0.1,0.5
					l0,0c0.1-0.2,0.3-0.3,0.5-0.4c0.2-0.1,0.4-0.1,0.6-0.1c0.4,0,0.8,0.2,1.1,0.5c0.5,0.8,0.5,1.8,0,2.7
					C319.3,41.1,318.9,41.2,318.6,41.2z M318.5,38.1c-0.3,0-0.6,0.1-0.8,0.3c-0.2,0.3-0.3,0.6-0.2,0.9v0.1c0,0.4,0.1,0.7,0.2,1
					c0.2,0.2,0.5,0.3,0.8,0.3c0.3,0,0.5-0.1,0.7-0.4c0.2-0.3,0.3-0.6,0.3-1c0-0.4-0.1-0.7-0.3-1C319,38.2,318.8,38,318.5,38.1z"/>
				<path class="st4" d="M325.6,41.2l-0.6-1.5h-1.9l-0.6,1.5H322l1.9-4.7h0.5l1.8,4.7H325.6z M324.8,39.2l-0.5-1.4
					c-0.1-0.2-0.1-0.4-0.2-0.7c0,0.2-0.1,0.4-0.2,0.7l-0.5,1.4H324.8z"/>
				<path class="st4" d="M307.5,28.4c0,0.4-0.1,0.7-0.4,1c-0.4,0.2-0.8,0.4-1.2,0.3c-0.4,0-0.9,0-1.3-0.2V29
					c0.2,0.1,0.4,0.1,0.6,0.2c0.2,0,0.4,0.1,0.7,0.1c0.3,0,0.6-0.1,0.8-0.2c0.2-0.1,0.3-0.3,0.3-0.6c0-0.1,0-0.3-0.1-0.4
					c-0.1-0.1-0.2-0.2-0.3-0.3c-0.2-0.1-0.5-0.2-0.7-0.3c-0.3-0.1-0.7-0.3-0.9-0.5c-0.2-0.2-0.3-0.5-0.3-0.8c0-0.3,0.1-0.7,0.4-0.9
					c0.3-0.2,0.7-0.3,1.1-0.3c0.4,0,0.9,0.1,1.3,0.2l-0.2,0.5c-0.4-0.2-0.7-0.2-1.1-0.2c-0.2,0-0.5,0.1-0.7,0.2
					c-0.2,0.1-0.3,0.3-0.2,0.5c0,0.1,0,0.3,0.1,0.4c0.1,0.1,0.2,0.2,0.3,0.3c0.2,0.1,0.4,0.2,0.6,0.3c0.4,0.1,0.7,0.3,1,0.5
					C307.4,27.9,307.5,28.2,307.5,28.4z"/>
				<path class="st4" d="M309.5,29.3h0.3l0.2,0v0.4c-0.1,0-0.2,0.1-0.3,0.1h-0.3c-0.7,0-1-0.4-1-1.1v-2.1h-0.5v-0.2l0.5-0.2l0.2-0.7
					h0.3v0.8h1v0.4h-1v2c0,0.2,0,0.3,0.1,0.5C309.2,29.2,309.3,29.3,309.5,29.3z"/>
				<path class="st4" d="M312.2,26.1c0.1,0,0.3,0,0.4,0l-0.1,0.5c-0.1,0-0.3,0-0.4,0c-0.3,0-0.5,0.1-0.7,0.3
					c-0.2,0.2-0.3,0.5-0.3,0.9v1.9h-0.5v-3.5h0.4l0.1,0.6l0,0c0.1-0.2,0.3-0.4,0.5-0.5C311.8,26.2,312,26.1,312.2,26.1z"/>
				<path class="st4" d="M314.8,29.7c-0.5,0-0.9-0.1-1.2-0.5c-0.3-0.4-0.5-0.8-0.5-1.3c0-0.5,0.1-1,0.4-1.3c0.3-0.3,0.7-0.5,1.1-0.5
					c0.4,0,0.7,0.2,1,0.4c0.3,0.3,0.4,0.7,0.4,1.1V28h-2.4c0,0.3,0.1,0.7,0.3,0.9c0.2,0.2,0.5,0.3,0.8,0.3c0.4,0,0.8-0.1,1.2-0.2
					v0.5c-0.2,0.1-0.3,0.1-0.5,0.2C315.2,29.7,315,29.7,314.8,29.7z M314.6,26.6c-0.3,0-0.5,0.1-0.7,0.3c-0.2,0.2-0.3,0.5-0.3,0.8
					h1.8c0-0.3-0.1-0.5-0.2-0.8C315.1,26.6,314.9,26.5,314.6,26.6z"/>
				<path class="st4" d="M318.6,29.7c-0.2,0-0.4,0-0.6-0.1c-0.2-0.1-0.3-0.2-0.5-0.4l0,0c0,0.2,0,0.4,0,0.6v1.4h-0.6v-5h0.4l0.1,0.5
					l0,0c0.1-0.2,0.3-0.3,0.5-0.4c0.2-0.1,0.4-0.1,0.6-0.1c0.4,0,0.8,0.2,1.1,0.5c0.3,0.4,0.4,0.9,0.4,1.3c0,0.5-0.1,0.9-0.4,1.3
					C319.3,29.6,318.9,29.7,318.6,29.7z M318.5,26.6c-0.3,0-0.6,0.1-0.8,0.3c-0.2,0.3-0.3,0.6-0.2,0.9v0.1c0,0.4,0.1,0.7,0.2,1
					c0.2,0.2,0.5,0.4,0.8,0.3c0.3,0,0.5-0.1,0.7-0.4c0.2-0.3,0.3-0.6,0.3-1c0-0.4-0.1-0.7-0.3-1C319,26.7,318.8,26.6,318.5,26.6z"/>
				<path class="st4" d="M325.6,29.7l-0.6-1.5h-1.9l-0.6,1.5H322l1.9-4.7h0.5l1.8,4.6L325.6,29.7z M324.8,27.7l-0.5-1.4
					c-0.1-0.2-0.1-0.4-0.2-0.7c0,0.2-0.1,0.4-0.2,0.7l-0.5,1.4H324.8z"/>
			</g>
		</g>
		<rect x="23.9" y="27" class="st2" width="20" height="14"/>
		<g>
			<defs>
				<rect id="SVGID_3_" x="23.9" y="27" width="20" height="14"/>
			</defs>
			<clipPath id="SVGID_4_">
				<use xlink:href="#SVGID_3_"  style="overflow:visible;"/>
			</clipPath>
			<g class="st5">
				<polygon class="st6" points="33.2,31.3 28.7,33.9 33.2,36.4 33.2,34.9 39.9,34.9 39.9,32.8 33.2,32.8 				"/>
				<polygon class="st6" points="26.4,26.1 21.9,28.6 26.4,31.2 26.4,29.7 33.2,29.7 33.2,27.6 26.4,27.6 				"/>
				<polygon class="st6" points="26.4,35.8 21.9,38.4 26.4,40.9 26.4,39.4 33.2,39.4 33.2,37.3 26.4,37.3 				"/>
				<polygon class="st6" points="45.9,31.3 41.4,33.9 45.9,36.4 45.9,34.9 52.7,34.9 52.7,32.8 45.9,32.8 				"/>
				<polygon class="st6" points="19.7,31.3 15.2,33.9 19.7,36.4 19.7,34.9 26.4,34.9 26.4,32.8 19.7,32.8 				"/>
				<polygon class="st6" points="39.9,26.1 35.4,28.6 39.9,31.2 39.9,29.7 46.7,29.7 46.7,27.6 39.9,27.6 				"/>
				<polygon class="st6" points="39.9,35.8 35.4,38.4 39.9,40.9 39.9,39.4 46.7,39.4 46.7,37.3 39.9,37.3 				"/>
			</g>
		</g>
		<line class="st7" x1="84.9" y1="27" x2="84.9" y2="41"/>
		<circle class="st8" cx="92.4" cy="34" r="33"/>
	</g>
</g>
</svg>
