<?xml version="1.0" encoding="utf-8"?>
<!-- Generator: Adobe Illustrator 22.1.0, SVG Export Plug-In . SVG Version: 6.00 Build 0)  -->
<svg version="1.1" id="Шар_1" xmlns="http://www.w3.org/2000/svg" xmlns:xlink="http://www.w3.org/1999/xlink" x="0px" y="0px"
	 viewBox="0 0 200 68" style="enable-background:new 0 0 200 68;" xml:space="preserve">
<style type="text/css">
	.st0{fill:#999999;}
	.st1{fill:#0071BC;}
	.st2{fill:#FFFFFF;}
	.st3{clip-path:url(#SVGID_2_);}
	.st4{fill:#E6E6E6;}
	.st5{clip-path:url(#SVGID_4_);}
	.st6{fill:#2083C4;}
	.st7{fill:none;stroke:#ED1E79;stroke-width:2;stroke-miterlimit:10;}
</style>
<title>test-fourth</title>
<g id="Шар_2_1_">
	<g id="Layer_1">
		<rect x="-21.5" y="29" class="st0" width="358" height="16"/>
		<rect x="-17.5" y="26" class="st1" width="358" height="16"/>
		<rect x="303.5" y="27" class="st2" width="33" height="14"/>
		<rect x="147.5" y="27" class="st2" width="150" height="14"/>
		<rect x="80.5" y="27" class="st2" width="35" height="14"/>
		<rect x="-16.5" y="27" class="st2" width="44" height="14"/>
		<g>
			<defs>
				<rect id="SVGID_1_" x="303.5" y="27" width="33" height="14"/>
			</defs>
			<clipPath id="SVGID_2_">
				<use xlink:href="#SVGID_1_"  style="overflow:visible;"/>
			</clipPath>
			<g class="st3">
				<path class="st4" d="M313.1,34.2c0,0.4-0.1,0.8-0.4,1c-0.4,0.2-0.8,0.4-1.2,0.3c-0.4,0-0.9,0-1.3-0.2v-0.5
					c0.2,0.1,0.4,0.1,0.6,0.2c0.2,0,0.5,0,0.7,0c0.3,0,0.6-0.1,0.8-0.2c0.2-0.1,0.3-0.3,0.3-0.6c0-0.1,0-0.3-0.1-0.4
					c-0.1-0.1-0.2-0.2-0.3-0.3c-0.2-0.1-0.5-0.2-0.7-0.3c-0.3-0.1-0.7-0.3-0.9-0.5c-0.2-0.2-0.3-0.5-0.3-0.8c0-0.3,0.1-0.7,0.4-0.9
					c0.3-0.2,0.7-0.3,1.1-0.3c0.4,0,0.9,0.1,1.3,0.3l-0.2,0.5c-0.4-0.2-0.7-0.2-1.1-0.2c-0.2,0-0.5,0.1-0.7,0.2
					c-0.2,0.1-0.3,0.3-0.2,0.5c0,0.1,0,0.3,0.1,0.4c0.1,0.1,0.2,0.2,0.3,0.3c0.2,0.1,0.4,0.2,0.6,0.3c0.4,0.1,0.7,0.3,1,0.5
					C313,33.6,313.1,33.9,313.1,34.2z"/>
				<path class="st4" d="M315.1,35h0.3l0.2,0v0.4c-0.1,0-0.2,0.1-0.3,0.1H315c-0.7,0-1-0.3-1-1.1v-2h-0.5v-0.3l0.5-0.2l0.2-0.7h0.3
					v0.8h1v0.4h-1v2c0,0.2,0,0.3,0.1,0.5C314.8,34.9,314.9,35,315.1,35z"/>
				<path class="st4" d="M317.8,31.9c0.1,0,0.3,0,0.4,0l-0.1,0.5c-0.1,0-0.3,0-0.4,0c-0.3,0-0.5,0.1-0.7,0.3
					c-0.2,0.2-0.3,0.5-0.3,0.9v1.9h-0.5v-3.5h0.4l0.1,0.6l0,0c0.1-0.2,0.3-0.4,0.5-0.5C317.4,31.9,317.6,31.9,317.8,31.9z"/>
				<path class="st4" d="M320.4,35.5c-0.5,0-0.9-0.1-1.2-0.5c-0.3-0.4-0.5-0.8-0.5-1.3c0-0.5,0.1-1,0.4-1.3c0.3-0.3,0.7-0.5,1.1-0.5
					c0.4,0,0.7,0.2,1,0.4c0.3,0.3,0.4,0.7,0.4,1.1v0.3h-2.4c0,0.3,0.1,0.7,0.3,0.9c0.2,0.2,0.5,0.3,0.8,0.3c0.4,0,0.8-0.1,1.1-0.2
					v0.5c-0.2,0.1-0.3,0.1-0.5,0.2C320.7,35.5,320.5,35.5,320.4,35.5z M320.2,32.3c-0.3,0-0.5,0.1-0.7,0.3c-0.2,0.2-0.3,0.5-0.3,0.8
					h1.8c0-0.3-0.1-0.5-0.2-0.8C320.7,32.4,320.5,32.3,320.2,32.3z"/>
				<path class="st4" d="M324.1,35.5c-0.2,0-0.4,0-0.6-0.1c-0.2-0.1-0.3-0.2-0.5-0.4l0,0c0,0.2,0,0.4,0,0.6V37h-0.6v-5h0.4l0.1,0.5
					l0,0c0.1-0.2,0.3-0.4,0.5-0.5c0.2-0.1,0.4-0.1,0.6-0.1c0.4,0,0.8,0.2,1.1,0.5c0.5,0.8,0.5,1.8,0,2.7
					C324.9,35.3,324.5,35.5,324.1,35.5z M324.1,32.3c-0.3,0-0.6,0.1-0.8,0.3c-0.2,0.3-0.3,0.6-0.2,0.9v0.1c0,0.4,0.1,0.7,0.2,1
					c0.2,0.2,0.5,0.3,0.8,0.3c0.3,0,0.5-0.1,0.7-0.4c0.2-0.3,0.3-0.6,0.3-1c0-0.4-0.1-0.7-0.3-1C324.6,32.4,324.3,32.3,324.1,32.3z"
					/>
				<path class="st4" d="M331.2,35.4l-0.6-1.5h-1.9l-0.6,1.5h-0.5l1.9-4.6h0.5l1.8,4.6H331.2z M330.4,33.4l-0.5-1.4
					c-0.1-0.2-0.1-0.4-0.2-0.7c0,0.2-0.1,0.4-0.2,0.7l-0.5,1.4L330.4,33.4z"/>
				<path class="st4" d="M313.1,39.9c0,0.4-0.1,0.8-0.4,1c-0.4,0.2-0.8,0.4-1.2,0.3c-0.4,0-0.9,0-1.3-0.2v-0.5
					c0.2,0.1,0.4,0.1,0.6,0.2c0.2,0,0.4,0.1,0.7,0.1c0.3,0,0.6-0.1,0.8-0.2c0.2-0.1,0.3-0.4,0.2-0.6c0-0.1,0-0.3-0.1-0.4
					c-0.1-0.1-0.2-0.2-0.3-0.3c-0.2-0.1-0.5-0.2-0.7-0.3c-0.3-0.1-0.7-0.3-0.9-0.5c-0.2-0.2-0.3-0.5-0.3-0.8c0-0.3,0.1-0.7,0.4-0.8
					c0.3-0.2,0.7-0.3,1.1-0.3c0.4,0,0.9,0.1,1.3,0.3l-0.2,0.5c-0.4-0.2-0.7-0.2-1.1-0.2c-0.2,0-0.5,0.1-0.7,0.2
					c-0.2,0.1-0.3,0.3-0.2,0.5c0,0.1,0,0.3,0.1,0.4c0.1,0.1,0.2,0.2,0.3,0.3c0.2,0.1,0.4,0.2,0.6,0.3c0.4,0.1,0.7,0.3,1,0.5
					C313,39.4,313.1,39.6,313.1,39.9z"/>
				<path class="st4" d="M315.1,40.8h0.3l0.2,0v0.4c-0.1,0-0.2,0.1-0.3,0.1H315c-0.7,0-1-0.3-1-1.1v-2.1h-0.5v-0.3l0.5-0.2l0.2-0.7
					h0.3v0.8h1v0.4h-1v2c0,0.2,0,0.3,0.1,0.5C314.8,40.7,314.9,40.8,315.1,40.8z"/>
				<path class="st4" d="M317.8,37.6c0.1,0,0.3,0,0.4,0l-0.1,0.5c-0.1,0-0.3,0-0.4,0c-0.3,0-0.5,0.1-0.7,0.3
					c-0.2,0.2-0.3,0.5-0.3,0.9v1.9h-0.5v-3.5h0.4l0.1,0.6l0,0c0.1-0.2,0.3-0.4,0.5-0.5C317.4,37.7,317.6,37.6,317.8,37.6z"/>
				<path class="st4" d="M320.4,41.2c-0.5,0-0.9-0.1-1.2-0.5c-0.3-0.4-0.5-0.8-0.5-1.3c0-0.5,0.1-1,0.4-1.3c0.3-0.3,0.7-0.5,1.1-0.5
					c0.4,0,0.7,0.2,1,0.4c0.3,0.3,0.4,0.7,0.4,1.1v0.3h-2.4c0,0.3,0.1,0.7,0.3,0.9c0.2,0.2,0.5,0.3,0.8,0.3c0.4,0,0.8-0.1,1.1-0.2
					V41c-0.2,0.1-0.3,0.1-0.5,0.2C320.7,41.2,320.5,41.2,320.4,41.2z M320.2,38.1c-0.3,0-0.5,0.1-0.7,0.3c-0.2,0.2-0.3,0.5-0.3,0.8
					h1.8c0-0.3-0.1-0.5-0.2-0.8C320.7,38.1,320.5,38,320.2,38.1z"/>
				<path class="st4" d="M324.1,41.2c-0.2,0-0.4,0-0.6-0.1c-0.2-0.1-0.3-0.2-0.5-0.4l0,0c0,0.2,0,0.4,0,0.6v1.4h-0.6v-5h0.4l0.1,0.5
					l0,0c0.1-0.2,0.3-0.3,0.5-0.4c0.2-0.1,0.4-0.1,0.6-0.1c0.4,0,0.8,0.2,1.1,0.5c0.5,0.8,0.5,1.8,0,2.7
					C324.9,41.1,324.5,41.2,324.1,41.2z M324.1,38.1c-0.3,0-0.6,0.1-0.8,0.3c-0.2,0.3-0.3,0.6-0.2,0.9v0.1c0,0.4,0.1,0.7,0.2,1
					c0.2,0.2,0.5,0.3,0.8,0.3c0.3,0,0.5-0.1,0.7-0.4c0.2-0.3,0.3-0.6,0.3-1c0-0.4-0.1-0.7-0.3-1C324.6,38.2,324.3,38,324.1,38.1z"/>
				<path class="st4" d="M331.2,41.2l-0.6-1.5h-1.9l-0.6,1.5h-0.5l1.9-4.7h0.5l1.8,4.7H331.2z M330.4,39.2l-0.5-1.4
					c-0.1-0.2-0.1-0.4-0.2-0.7c0,0.2-0.1,0.4-0.2,0.7l-0.5,1.4H330.4z"/>
				<path class="st4" d="M313.1,28.4c0,0.4-0.1,0.7-0.4,1c-0.4,0.2-0.8,0.4-1.2,0.3c-0.4,0-0.9,0-1.3-0.2V29
					c0.2,0.1,0.4,0.1,0.6,0.2c0.2,0,0.4,0.1,0.7,0.1c0.3,0,0.6-0.1,0.8-0.2c0.2-0.1,0.3-0.3,0.3-0.6c0-0.1,0-0.3-0.1-0.4
					c-0.1-0.1-0.2-0.2-0.3-0.3c-0.2-0.1-0.5-0.2-0.7-0.3c-0.3-0.1-0.7-0.3-0.9-0.5c-0.2-0.2-0.3-0.5-0.3-0.8c0-0.3,0.1-0.7,0.4-0.9
					c0.3-0.2,0.7-0.3,1.1-0.3c0.4,0,0.9,0.1,1.3,0.2l-0.2,0.5c-0.4-0.2-0.7-0.2-1.1-0.2c-0.2,0-0.5,0.1-0.7,0.2
					c-0.2,0.1-0.3,0.3-0.2,0.5c0,0.1,0,0.3,0.1,0.4c0.1,0.1,0.2,0.2,0.3,0.3c0.2,0.1,0.4,0.2,0.6,0.3c0.4,0.1,0.7,0.3,1,0.5
					C313,27.9,313.1,28.2,313.1,28.4z"/>
				<path class="st4" d="M315.1,29.3h0.3l0.2,0v0.4c-0.1,0-0.2,0.1-0.3,0.1H315c-0.7,0-1-0.4-1-1.1v-2.1h-0.5v-0.2l0.5-0.2l0.2-0.7
					h0.3v0.8h1v0.4h-1v2c0,0.2,0,0.3,0.1,0.5C314.8,29.2,314.9,29.3,315.1,29.3z"/>
				<path class="st4" d="M317.8,26.1c0.1,0,0.3,0,0.4,0l-0.1,0.5c-0.1,0-0.3,0-0.4,0c-0.3,0-0.5,0.1-0.7,0.3
					c-0.2,0.2-0.3,0.5-0.3,0.9v1.9h-0.5v-3.5h0.4l0.1,0.6l0,0c0.1-0.2,0.3-0.4,0.5-0.5C317.4,26.2,317.6,26.1,317.8,26.1z"/>
				<path class="st4" d="M320.4,29.7c-0.5,0-0.9-0.1-1.2-0.5c-0.3-0.4-0.5-0.8-0.5-1.3c0-0.5,0.1-1,0.4-1.3c0.3-0.3,0.7-0.5,1.1-0.5
					c0.4,0,0.7,0.2,1,0.4c0.3,0.3,0.4,0.7,0.4,1.1V28h-2.4c0,0.3,0.1,0.7,0.3,0.9c0.2,0.2,0.5,0.3,0.8,0.3c0.4,0,0.8-0.1,1.2-0.2
					v0.5c-0.2,0.1-0.3,0.1-0.5,0.2C320.8,29.7,320.6,29.7,320.4,29.7z M320.2,26.6c-0.3,0-0.5,0.1-0.7,0.3c-0.2,0.2-0.3,0.5-0.3,0.8
					h1.8c0-0.3-0.1-0.5-0.2-0.8C320.7,26.6,320.5,26.5,320.2,26.6z"/>
				<path class="st4" d="M324.1,29.7c-0.2,0-0.4,0-0.6-0.1c-0.2-0.1-0.3-0.2-0.5-0.4l0,0c0,0.2,0,0.4,0,0.6v1.4h-0.6v-5h0.4l0.1,0.5
					l0,0c0.1-0.2,0.3-0.3,0.5-0.4c0.2-0.1,0.4-0.1,0.6-0.1c0.4,0,0.8,0.2,1.1,0.5c0.3,0.4,0.4,0.9,0.4,1.3c0,0.5-0.1,0.9-0.4,1.3
					C324.9,29.6,324.5,29.7,324.1,29.7z M324.1,26.6c-0.3,0-0.6,0.1-0.8,0.3c-0.2,0.3-0.3,0.6-0.2,0.9v0.1c0,0.4,0.1,0.7,0.2,1
					c0.2,0.2,0.5,0.4,0.8,0.3c0.3,0,0.5-0.1,0.7-0.4c0.2-0.3,0.3-0.6,0.3-1c0-0.4-0.1-0.7-0.3-1C324.6,26.7,324.3,26.6,324.1,26.6z"
					/>
				<path class="st4" d="M331.2,29.7l-0.6-1.5h-1.9l-0.6,1.5h-0.5l1.9-4.7h0.5l1.8,4.6L331.2,29.7z M330.4,27.7l-0.5-1.4
					c-0.1-0.2-0.1-0.4-0.2-0.7c0,0.2-0.1,0.4-0.2,0.7l-0.5,1.4H330.4z"/>
			</g>
		</g>
		<rect x="29.5" y="27" class="st2" width="20" height="14"/>
		<g>
			<defs>
				<rect id="SVGID_3_" x="29.5" y="27" width="20" height="14"/>
			</defs>
			<clipPath id="SVGID_4_">
				<use xlink:href="#SVGID_3_"  style="overflow:visible;"/>
			</clipPath>
			<g class="st5">
				<polygon class="st6" points="38.8,31.3 34.2,33.9 38.8,36.4 38.8,34.9 45.5,34.9 45.5,32.8 38.8,32.8 				"/>
				<polygon class="st6" points="32,26.1 27.5,28.6 32,31.2 32,29.7 38.8,29.7 38.8,27.6 32,27.6 				"/>
				<polygon class="st6" points="32,35.8 27.5,38.4 32,40.9 32,39.4 38.8,39.4 38.8,37.3 32,37.3 				"/>
				<polygon class="st6" points="51.5,31.3 47,33.9 51.5,36.4 51.5,34.9 58.2,34.9 58.2,32.8 51.5,32.8 				"/>
				<polygon class="st6" points="25.3,31.3 20.8,33.9 25.3,36.4 25.3,34.9 32,34.9 32,32.8 25.3,32.8 				"/>
				<polygon class="st6" points="45.5,26.1 41,28.6 45.5,31.2 45.5,29.7 52.2,29.7 52.2,27.6 45.5,27.6 				"/>
				<polygon class="st6" points="45.5,35.8 41,38.4 45.5,40.9 45.5,39.4 52.2,39.4 52.2,37.3 45.5,37.3 				"/>
			</g>
		</g>
		<circle class="st7" cx="98" cy="34" r="33"/>
	</g>
</g>
</svg>
