<?xml version="1.0" encoding="utf-8"?>
<!-- Generator: Adobe Illustrator 22.1.0, SVG Export Plug-In . SVG Version: 6.00 Build 0)  -->
<svg version="1.1" id="Шар_1" xmlns="http://www.w3.org/2000/svg" xmlns:xlink="http://www.w3.org/1999/xlink" x="0px" y="0px"
	 viewBox="0 0 200 68" style="enable-background:new 0 0 200 68;" xml:space="preserve">
<style type="text/css">
	.st0{fill:#999999;}
	.st1{fill:#0071BC;}
	.st2{fill:#FFFFFF;}
	.st3{clip-path:url(#SVGID_2_);}
	.st4{fill:#E6E6E6;}
	.st5{clip-path:url(#SVGID_4_);}
	.st6{fill:#2083C4;}
	.st7{fill:none;stroke:#ED1E79;stroke-width:2;stroke-miterlimit:10;}
</style>
<title>test-second</title>
<g id="Шар_2_1_">
	<g id="Layer_1">
		<rect x="-26" y="29" class="st0" width="358" height="16"/>
		<rect x="-22" y="26" class="st1" width="358" height="16"/>
		<rect x="299" y="27" class="st2" width="33" height="14"/>
		<rect x="143" y="27" class="st2" width="150" height="14"/>
		<rect x="76" y="27" class="st2" width="35" height="14"/>
		<rect x="-21" y="27" class="st2" width="44" height="14"/>
		<g>
			<defs>
				<rect id="SVGID_1_" x="299" y="27" width="33" height="14"/>
			</defs>
			<clipPath id="SVGID_2_">
				<use xlink:href="#SVGID_1_"  style="overflow:visible;"/>
			</clipPath>
			<g class="st3">
				<path class="st4" d="M308.6,34.2c0,0.4-0.1,0.8-0.4,1c-0.4,0.2-0.8,0.4-1.2,0.3c-0.4,0-0.9,0-1.3-0.2v-0.5
					c0.2,0.1,0.4,0.1,0.6,0.2c0.2,0,0.5,0,0.7,0c0.3,0,0.6-0.1,0.8-0.2c0.2-0.1,0.3-0.3,0.3-0.6c0-0.1,0-0.3-0.1-0.4
					c-0.1-0.1-0.2-0.2-0.3-0.3c-0.2-0.1-0.5-0.2-0.7-0.3c-0.3-0.1-0.7-0.3-0.9-0.5c-0.2-0.2-0.3-0.5-0.3-0.8c0-0.3,0.1-0.7,0.4-0.9
					c0.3-0.2,0.7-0.3,1.1-0.3c0.4,0,0.9,0.1,1.3,0.3l-0.2,0.5c-0.4-0.2-0.7-0.2-1.1-0.2c-0.2,0-0.5,0.1-0.7,0.2
					c-0.2,0.1-0.3,0.3-0.2,0.5c0,0.1,0,0.3,0.1,0.4c0.1,0.1,0.2,0.2,0.3,0.3c0.2,0.1,0.4,0.2,0.6,0.3c0.4,0.1,0.7,0.3,1,0.5
					C308.5,33.6,308.6,33.9,308.6,34.2z"/>
				<path class="st4" d="M310.6,35h0.3l0.2,0v0.4c-0.1,0-0.2,0.1-0.3,0.1h-0.3c-0.7,0-1-0.3-1-1.1v-2H309v-0.3l0.5-0.2l0.2-0.7h0.3
					v0.8h1v0.4h-1v2c0,0.2,0,0.3,0.1,0.5C310.3,34.9,310.4,35,310.6,35z"/>
				<path class="st4" d="M313.3,31.9c0.1,0,0.3,0,0.4,0l-0.1,0.5c-0.1,0-0.3,0-0.4,0c-0.3,0-0.5,0.1-0.7,0.3
					c-0.2,0.2-0.3,0.5-0.3,0.9v1.9h-0.5v-3.5h0.4l0.1,0.6l0,0c0.1-0.2,0.3-0.4,0.5-0.5C312.9,31.9,313.1,31.9,313.3,31.9z"/>
				<path class="st4" d="M315.9,35.5c-0.5,0-0.9-0.1-1.2-0.5c-0.3-0.4-0.5-0.8-0.5-1.3c0-0.5,0.1-1,0.4-1.3c0.3-0.3,0.7-0.5,1.1-0.5
					c0.4,0,0.7,0.2,1,0.4c0.3,0.3,0.4,0.7,0.4,1.1v0.3h-2.4c0,0.3,0.1,0.7,0.3,0.9c0.2,0.2,0.5,0.3,0.8,0.3c0.4,0,0.8-0.1,1.1-0.2
					v0.5c-0.2,0.1-0.3,0.1-0.5,0.2C316.2,35.5,316,35.5,315.9,35.5z M315.7,32.3c-0.3,0-0.5,0.1-0.7,0.3c-0.2,0.2-0.3,0.5-0.3,0.8
					h1.8c0-0.3-0.1-0.5-0.2-0.8C316.2,32.4,316,32.3,315.7,32.3z"/>
				<path class="st4" d="M319.6,35.5c-0.2,0-0.4,0-0.6-0.1c-0.2-0.1-0.3-0.2-0.5-0.4l0,0c0,0.2,0,0.4,0,0.6V37H318v-5h0.4l0.1,0.5
					l0,0c0.1-0.2,0.3-0.4,0.5-0.5c0.2-0.1,0.4-0.1,0.6-0.1c0.4,0,0.8,0.2,1.1,0.5c0.5,0.8,0.5,1.8,0,2.7
					C320.4,35.3,320,35.5,319.6,35.5z M319.6,32.3c-0.3,0-0.6,0.1-0.8,0.3c-0.2,0.3-0.3,0.6-0.2,0.9v0.1c0,0.4,0.1,0.7,0.2,1
					c0.2,0.2,0.5,0.3,0.8,0.3c0.3,0,0.5-0.1,0.7-0.4c0.2-0.3,0.3-0.6,0.3-1c0-0.4-0.1-0.7-0.3-1C320.1,32.4,319.8,32.3,319.6,32.3z"
					/>
				<path class="st4" d="M326.7,35.4l-0.6-1.5h-1.9l-0.6,1.5h-0.5l1.9-4.6h0.5l1.8,4.6H326.7z M325.9,33.4l-0.5-1.4
					c-0.1-0.2-0.2-0.4-0.2-0.7c0,0.2-0.1,0.4-0.2,0.7l-0.5,1.4L325.9,33.4z"/>
				<path class="st4" d="M308.6,39.9c0,0.4-0.1,0.8-0.4,1c-0.4,0.2-0.8,0.4-1.2,0.3c-0.4,0-0.9,0-1.3-0.2v-0.5
					c0.2,0.1,0.4,0.1,0.6,0.2c0.2,0,0.4,0.1,0.7,0.1c0.3,0,0.6-0.1,0.8-0.2c0.2-0.1,0.3-0.4,0.2-0.6c0-0.1,0-0.3-0.1-0.4
					c-0.1-0.1-0.2-0.2-0.3-0.3c-0.2-0.1-0.5-0.2-0.7-0.3c-0.3-0.1-0.7-0.3-0.9-0.5c-0.2-0.2-0.3-0.5-0.3-0.8c0-0.3,0.1-0.7,0.4-0.8
					c0.3-0.2,0.7-0.3,1.1-0.3c0.4,0,0.9,0.1,1.3,0.3l-0.2,0.5c-0.4-0.2-0.7-0.2-1.1-0.2c-0.2,0-0.5,0.1-0.7,0.2
					c-0.2,0.1-0.3,0.3-0.2,0.5c0,0.1,0,0.3,0.1,0.4c0.1,0.1,0.2,0.2,0.3,0.3c0.2,0.1,0.4,0.2,0.6,0.3c0.4,0.1,0.7,0.3,1,0.5
					C308.5,39.4,308.6,39.6,308.6,39.9z"/>
				<path class="st4" d="M310.6,40.8h0.3l0.2,0v0.4c-0.1,0-0.2,0.1-0.3,0.1h-0.3c-0.7,0-1-0.3-1-1.1v-2.1H309v-0.3l0.5-0.2l0.2-0.7
					h0.3v0.8h1v0.4h-1v2c0,0.2,0,0.3,0.1,0.5C310.3,40.7,310.4,40.8,310.6,40.8z"/>
				<path class="st4" d="M313.3,37.6c0.1,0,0.3,0,0.4,0l-0.1,0.5c-0.1,0-0.3,0-0.4,0c-0.3,0-0.5,0.1-0.7,0.3
					c-0.2,0.2-0.3,0.5-0.3,0.9v1.9h-0.5v-3.5h0.4l0.1,0.6l0,0c0.1-0.2,0.3-0.4,0.5-0.5C312.9,37.7,313.1,37.6,313.3,37.6z"/>
				<path class="st4" d="M315.9,41.2c-0.5,0-0.9-0.1-1.2-0.5c-0.3-0.4-0.5-0.8-0.5-1.3c0-0.5,0.1-1,0.4-1.3c0.3-0.3,0.7-0.5,1.1-0.5
					c0.4,0,0.7,0.2,1,0.4c0.3,0.3,0.4,0.7,0.4,1.1v0.3h-2.4c0,0.3,0.1,0.7,0.3,0.9c0.2,0.2,0.5,0.3,0.8,0.3c0.4,0,0.8-0.1,1.1-0.2
					V41c-0.2,0.1-0.3,0.1-0.5,0.2C316.2,41.2,316,41.2,315.9,41.2z M315.7,38.1c-0.3,0-0.5,0.1-0.7,0.3c-0.2,0.2-0.3,0.5-0.3,0.8
					h1.8c0-0.3-0.1-0.5-0.2-0.8C316.2,38.1,316,38,315.7,38.1z"/>
				<path class="st4" d="M319.6,41.2c-0.2,0-0.4,0-0.6-0.1c-0.2-0.1-0.3-0.2-0.5-0.4l0,0c0,0.2,0,0.4,0,0.6v1.4H318v-5h0.4l0.1,0.5
					l0,0c0.1-0.2,0.3-0.3,0.5-0.4c0.2-0.1,0.4-0.1,0.6-0.1c0.4,0,0.8,0.2,1.1,0.5c0.5,0.8,0.5,1.8,0,2.7
					C320.4,41.1,320,41.2,319.6,41.2z M319.6,38.1c-0.3,0-0.6,0.1-0.8,0.3c-0.2,0.3-0.3,0.6-0.2,0.9v0.1c0,0.4,0.1,0.7,0.2,1
					c0.2,0.2,0.5,0.3,0.8,0.3c0.3,0,0.5-0.1,0.7-0.4c0.2-0.3,0.3-0.6,0.3-1c0-0.4-0.1-0.7-0.3-1C320.1,38.2,319.8,38,319.6,38.1z"/>
				<path class="st4" d="M326.7,41.2l-0.6-1.5h-1.9l-0.6,1.5h-0.5l1.9-4.7h0.5l1.8,4.7H326.7z M325.9,39.2l-0.5-1.4
					c-0.1-0.2-0.2-0.4-0.2-0.7c0,0.2-0.1,0.4-0.2,0.7l-0.5,1.4H325.9z"/>
				<path class="st4" d="M308.6,28.4c0,0.4-0.1,0.7-0.4,1c-0.4,0.2-0.8,0.4-1.2,0.3c-0.4,0-0.9,0-1.3-0.2V29
					c0.2,0.1,0.4,0.1,0.6,0.2c0.2,0,0.4,0.1,0.7,0.1c0.3,0,0.6-0.1,0.8-0.2c0.2-0.1,0.3-0.3,0.3-0.6c0-0.1,0-0.3-0.1-0.4
					c-0.1-0.1-0.2-0.2-0.3-0.3c-0.2-0.1-0.5-0.2-0.7-0.3c-0.3-0.1-0.7-0.3-0.9-0.5c-0.2-0.2-0.3-0.5-0.3-0.8c0-0.3,0.1-0.7,0.4-0.9
					c0.3-0.2,0.7-0.3,1.1-0.3c0.4,0,0.9,0.1,1.3,0.2l-0.2,0.5c-0.4-0.2-0.7-0.2-1.1-0.2c-0.2,0-0.5,0.1-0.7,0.2
					c-0.2,0.1-0.3,0.3-0.2,0.5c0,0.1,0,0.3,0.1,0.4c0.1,0.1,0.2,0.2,0.3,0.3c0.2,0.1,0.4,0.2,0.6,0.3c0.4,0.1,0.7,0.3,1,0.5
					C308.5,27.9,308.6,28.2,308.6,28.4z"/>
				<path class="st4" d="M310.6,29.3h0.3l0.2,0v0.4c-0.1,0-0.2,0.1-0.3,0.1h-0.3c-0.7,0-1-0.4-1-1.1v-2.1H309v-0.2l0.5-0.2l0.2-0.7
					h0.3v0.8h1v0.4h-1v2c0,0.2,0,0.3,0.1,0.5C310.3,29.2,310.4,29.3,310.6,29.3z"/>
				<path class="st4" d="M313.3,26.1c0.1,0,0.3,0,0.4,0l-0.1,0.5c-0.1,0-0.3,0-0.4,0c-0.3,0-0.5,0.1-0.7,0.3
					c-0.2,0.2-0.3,0.5-0.3,0.9v1.9h-0.5v-3.5h0.4l0.1,0.6l0,0c0.1-0.2,0.3-0.4,0.5-0.5C312.9,26.2,313.1,26.1,313.3,26.1z"/>
				<path class="st4" d="M315.9,29.7c-0.5,0-0.9-0.1-1.2-0.5c-0.3-0.4-0.5-0.8-0.5-1.3c0-0.5,0.1-1,0.4-1.3c0.3-0.3,0.7-0.5,1.1-0.5
					c0.4,0,0.7,0.2,1,0.4c0.3,0.3,0.4,0.7,0.4,1.1V28h-2.4c0,0.3,0.1,0.7,0.3,0.9c0.2,0.2,0.5,0.3,0.8,0.3c0.4,0,0.8-0.1,1.2-0.2
					v0.5c-0.2,0.1-0.3,0.1-0.5,0.2C316.3,29.7,316.1,29.7,315.9,29.7z M315.7,26.6c-0.3,0-0.5,0.1-0.7,0.3c-0.2,0.2-0.3,0.5-0.3,0.8
					h1.8c0-0.3-0.1-0.5-0.2-0.8C316.2,26.6,316,26.5,315.7,26.6z"/>
				<path class="st4" d="M319.6,29.7c-0.2,0-0.4,0-0.6-0.1c-0.2-0.1-0.3-0.2-0.5-0.4l0,0c0,0.2,0,0.4,0,0.6v1.4H318v-5h0.4l0.1,0.5
					l0,0c0.1-0.2,0.3-0.3,0.5-0.4c0.2-0.1,0.4-0.1,0.6-0.1c0.4,0,0.8,0.2,1.1,0.5c0.3,0.4,0.4,0.9,0.4,1.3c0,0.5-0.1,0.9-0.4,1.3
					C320.4,29.6,320,29.7,319.6,29.7z M319.6,26.6c-0.3,0-0.6,0.1-0.8,0.3c-0.2,0.3-0.3,0.6-0.2,0.9v0.1c0,0.4,0.1,0.7,0.2,1
					c0.2,0.2,0.5,0.4,0.8,0.3c0.3,0,0.5-0.1,0.7-0.4c0.2-0.3,0.3-0.6,0.3-1c0-0.4-0.1-0.7-0.3-1C320.1,26.7,319.8,26.6,319.6,26.6z"
					/>
				<path class="st4" d="M326.7,29.7l-0.6-1.5h-1.9l-0.6,1.5h-0.5L325,25h0.5l1.8,4.6L326.7,29.7z M325.9,27.7l-0.5-1.4
					c-0.1-0.2-0.1-0.4-0.2-0.7c0,0.2-0.1,0.4-0.2,0.7l-0.5,1.4H325.9z"/>
			</g>
		</g>
		<rect x="25" y="27" class="st2" width="20" height="14"/>
		<g>
			<defs>
				<rect id="SVGID_3_" x="25" y="27" width="20" height="14"/>
			</defs>
			<clipPath id="SVGID_4_">
				<use xlink:href="#SVGID_3_"  style="overflow:visible;"/>
			</clipPath>
			<g class="st5">
				<polygon class="st6" points="34.3,31.3 29.8,33.9 34.3,36.4 34.3,34.9 41,34.9 41,32.8 34.3,32.8 				"/>
				<polygon class="st6" points="27.5,26.1 23,28.6 27.5,31.2 27.5,29.7 34.2,29.7 34.2,27.6 27.5,27.6 				"/>
				<polygon class="st6" points="27.5,35.8 23,38.4 27.5,40.9 27.5,39.4 34.2,39.4 34.2,37.3 27.5,37.3 				"/>
				<polygon class="st6" points="47,31.3 42.5,33.9 47,36.4 47,34.9 53.8,34.9 53.8,32.8 47,32.8 				"/>
				<polygon class="st6" points="20.8,31.3 16.2,33.9 20.8,36.4 20.8,34.9 27.5,34.9 27.5,32.8 20.8,32.8 				"/>
				<polygon class="st6" points="41,26.1 36.5,28.6 41,31.2 41,29.7 47.8,29.7 47.8,27.6 41,27.6 				"/>
				<polygon class="st6" points="41,35.8 36.5,38.4 41,40.9 41,39.4 47.8,39.4 47.8,37.3 41,37.3 				"/>
			</g>
		</g>
		<line class="st7" x1="100" y1="27" x2="100" y2="41"/>
		<circle class="st7" cx="93.5" cy="34" r="33"/>
	</g>
</g>
</svg>
